<svg width="22" height="20" viewBox="0 0 22 20" fill="none" xmlns="http://www.w3.org/2000/svg">
<g id="elements">
<path id="Vector" d="M11 17C9.66746 17.6224 7.91707 18 6 18C4.93408 18 3.91969 17.8833 3 17.6726C2.4088 17.5372 2.11319 17.4695 1.75898 17.1892C1.55696 17.0294 1.30483 16.7129 1.19412 16.4803C1 16.0725 1 15.677 1 14.886V4.11397C1 3.12914 2.04003 2.45273 3 2.6726C3.91969 2.88325 4.93408 3 6 3C7.91707 3 9.66746 2.62236 11 2C12.3325 1.37764 14.0829 1 16 1C17.0659 1 18.0803 1.11675 19 1.3274C19.5912 1.46281 19.8868 1.53051 20.241 1.81079C20.443 1.97064 20.6952 2.28705 20.8059 2.51966C21 2.92751 21 3.32299 21 4.11397V9.5" stroke="#F8FBFD" stroke-width="1.5" stroke-linecap="round"/>
<path id="Vector_2" d="M17.5 19L17.5 12M14 15.5H21" stroke="#F8FBFD" stroke-width="1.5" stroke-linecap="round"/>
<path id="Ellipse 1574" d="M13.5 9.5C13.5 10.8807 12.3807 12 11 12C9.61929 12 8.5 10.8807 8.5 9.5C8.5 8.11929 9.61929 7 11 7C12.3807 7 13.5 8.11929 13.5 9.5Z" stroke="#F8FBFD" stroke-width="1.5"/>
<path id="Vector_3" d="M4.5 10.5L4.5 10.509" stroke="#F8FBFD" stroke-width="2" stroke-linecap="round" stroke-linejoin="round"/>
</g>
</svg>
