<svg width="18" height="17" viewBox="0 0 18 17" fill="none" xmlns="http://www.w3.org/2000/svg">
<g id="elements">
<path id="Vector" d="M5.25 16V9.34452C5.25 8.27632 5.25 7.74222 5.49458 7.29424C5.73915 6.84626 6.18842 6.55744 7.08697 5.97981L7.91849 5.44526C8.44369 5.10763 8.7063 4.93881 9 4.93881C9.2937 4.93881 9.55631 5.10763 10.0815 5.44526L10.913 5.97981C11.8116 6.55744 12.2608 6.84626 12.5054 7.29424C12.75 7.74222 12.75 8.27632 12.75 9.34452V16" stroke="#59676E" stroke-width="1.5" stroke-linecap="round" stroke-linejoin="round"/>
<path id="Vector_2" d="M9 9.25H9.00674" stroke="#59676E" stroke-width="2" stroke-linecap="round" stroke-linejoin="round"/>
<path id="Vector_3" d="M15.75 16V11.6217C15.75 9.903 14.8056 9.76391 12.75 9.25" stroke="#59676E" stroke-width="1.5" stroke-linecap="round" stroke-linejoin="round"/>
<path id="Vector_4" d="M2.25 16V11.6217C2.25 9.903 3.19437 9.76391 5.25 9.25" stroke="#59676E" stroke-width="1.5" stroke-linecap="round" stroke-linejoin="round"/>
<path id="Vector 5325" d="M1.5 16H16.5" stroke="#59676E" stroke-width="1.5" stroke-linecap="round" stroke-linejoin="round"/>
<path id="Vector 6729" d="M9 16V13" stroke="#59676E" stroke-width="1.5" stroke-linecap="round"/>
<path id="Vector 5326" d="M9 4.75V3.23666M9 3.23666V1.72776C9 1.37211 9 1.19429 9.10983 1.0838C9.45455 0.737046 10.875 1.55727 11.4152 1.8899C11.8714 2.17079 12 2.73186 12 3.23666H9Z" stroke="#59676E" stroke-width="1.5" stroke-linecap="round" stroke-linejoin="round"/>
</g>
</svg>
