<svg width="18" height="15" viewBox="0 0 18 15" fill="none" xmlns="http://www.w3.org/2000/svg">
<g id="elements">
<path id="Vector 7163" d="M1.5 3L6.68477 5.93773C8.5962 7.02076 9.4038 7.02076 11.3152 5.93773L16.5 3" stroke="#59676E" stroke-width="1.5" stroke-linejoin="round"/>
<path id="Vector" d="M1.51182 8.60672C1.56086 10.9059 1.58537 12.0554 2.43372 12.907C3.28206 13.7586 4.46275 13.7883 6.82412 13.8476C8.27948 13.8841 9.72052 13.8841 11.1759 13.8476C13.5373 13.7883 14.7179 13.7586 15.5663 12.907C16.4146 12.0554 16.4391 10.9059 16.4882 8.60672C16.5039 7.86745 16.5039 7.13256 16.4882 6.3933C16.4391 4.09415 16.4146 2.94457 15.5663 2.093C14.7179 1.24142 13.5373 1.21176 11.1759 1.15243C9.72052 1.11586 8.27948 1.11586 6.82412 1.15242C4.46275 1.21175 3.28206 1.24141 2.43371 2.09299C1.58537 2.94456 1.56085 4.09413 1.51182 6.39328C1.49606 7.13255 1.49606 7.86745 1.51182 8.60672Z" stroke="#59676E" stroke-width="1.5" stroke-linejoin="round"/>
</g>
</svg>
