<svg width="18" height="19" viewBox="0 0 18 19" fill="none" xmlns="http://www.w3.org/2000/svg">
<path d="M1.5 5L6.68477 7.93773C8.5962 9.02076 9.4038 9.02076 11.3152 7.93773L16.5 5" stroke="#59676E" stroke-width="1.5" stroke-linejoin="round"/>
<path d="M1.51182 10.6067C1.56086 12.9059 1.58537 14.0554 2.43372 14.907C3.28206 15.7586 4.46275 15.7883 6.82412 15.8476C8.27948 15.8841 9.72052 15.8841 11.1759 15.8476C13.5373 15.7883 14.7179 15.7586 15.5663 14.907C16.4146 14.0554 16.4391 12.9059 16.4882 10.6067C16.5039 9.86745 16.5039 9.13256 16.4882 8.3933C16.4391 6.09415 16.4146 4.94457 15.5663 4.093C14.7179 3.24142 13.5373 3.21176 11.1759 3.15243C9.72052 3.11586 8.27948 3.11586 6.82412 3.15242C4.46275 3.21175 3.28206 3.24141 2.43371 4.09299C1.58537 4.94456 1.56085 6.09413 1.51182 8.39328C1.49606 9.13255 1.49606 9.86745 1.51182 10.6067Z" stroke="#59676E" stroke-width="1.5" stroke-linejoin="round"/>
</svg>
