<svg width="18" height="19" viewBox="0 0 18 19" fill="none" xmlns="http://www.w3.org/2000/svg">
<g id="2 - Regular / lock">
<path id="lock-Regular" d="M12.5625 7.69476V5.75C12.5625 3.78575 10.9642 2.1875 9 2.1875C7.03575 2.1875 5.4375 3.78575 5.4375 5.75V7.6955C4.122 8.21975 3.1875 9.5 3.1875 11V13.25C3.1875 15.2142 4.78575 16.8125 6.75 16.8125H11.25C13.2142 16.8125 14.8125 15.2142 14.8125 13.25V11C14.8125 9.5 13.878 8.21901 12.5625 7.69476ZM6.5625 5.75C6.5625 4.406 7.656 3.3125 9 3.3125C10.344 3.3125 11.4375 4.406 11.4375 5.75V7.45627C11.3737 7.45252 11.3145 7.4375 11.25 7.4375H6.75C6.6855 7.4375 6.62625 7.45327 6.5625 7.45627V5.75ZM13.6875 13.25C13.6875 14.594 12.594 15.6875 11.25 15.6875H6.75C5.406 15.6875 4.3125 14.594 4.3125 13.25V11C4.3125 9.656 5.406 8.5625 6.75 8.5625H11.25C12.594 8.5625 13.6875 9.656 13.6875 11V13.25ZM9.5625 11.75V12.5C9.5625 12.8105 9.3105 13.0625 9 13.0625C8.6895 13.0625 8.4375 12.8105 8.4375 12.5V11.75C8.4375 11.4395 8.6895 11.1875 9 11.1875C9.3105 11.1875 9.5625 11.4395 9.5625 11.75Z" fill="#59676E"/>
</g>
</svg>
